<?xml version="1.0" encoding="utf-8"?>
<!-- Generator: Adobe Illustrator 23.0.5, SVG Export Plug-In . SVG Version: 6.00 Build 0)  -->
<svg version="1.1" id="Layer_1" xmlns="http://www.w3.org/2000/svg" xmlns:xlink="http://www.w3.org/1999/xlink" x="0px" y="0px"
	 viewBox="4 5.25 249.99 309.5" style="enable-background:new 0 0 258 320;" xml:space="preserve">
<style type="text/css">
	.st0{fill:#FCB331;}
	.st1{fill:#CA8F28;}
	.st2{fill:#B07E22;}
	.st3{fill:#FFFFFF;}
</style>
<g>
	<path className="st0" d="M242.21,70.56v106.56H17.63V70.56c0-0.95,0.56-1.85,1.43-2.26l109.75-52.74c0.35-0.17,0.74-0.26,1.11-0.26
		c0.37,0,0.76,0.09,1.11,0.26L240.78,68.3C241.65,68.71,242.21,69.61,242.21,70.56z"/>
	<path className="st1" d="M242.64,174.26v29.94c0,16.6-8.26,32.24-22.12,41.82l-72.04,49.79c-5.73,3.96-12.48,6.05-19.5,6.05
		s-13.77-2.09-19.5-6.05l-72.02-49.79c-13.84-9.56-22.12-25.2-22.12-41.82v-29.94H242.64z"/>
	<path className="st2" d="M238.44,55.18L141.04,8c-3.79-1.83-7.92-2.75-12.04-2.75c-4.1,0-8.22,0.92-12.02,2.75l-97.4,47.19
		C10.05,59.79,4,69.44,4,80.01v122.07c0,23.11,11.25,44.78,30.14,58.11L97.3,304.7c9.51,6.7,20.61,10.05,31.7,10.05
		c11.11,0,22.21-3.35,31.7-10.05l63.17-44.51c18.89-13.33,30.12-35,30.12-58.11V80.01C254,69.44,247.95,59.79,238.44,55.18z
		 M238.07,202.08c0,17.89-8.75,34.75-23.38,45.07l-63.15,44.53c-6.63,4.66-14.43,7.14-22.54,7.14s-15.89-2.48-22.51-7.14
		l-63.16-44.53c-14.64-10.32-23.38-27.18-23.38-45.07V80.01c0-4.43,2.58-8.55,6.57-10.5l97.4-47.17c3.16-1.52,7.03-1.52,10.17,0
		l97.4,47.17c4.01,1.95,6.59,6.07,6.59,10.5V202.08z"/>
	<path className="st3" d="M209,215.28v-92.94l-41.69,15.26l-38.32-57.24l-38.3,57.26L49,122.36v92.94h160V215.28z"/>
</g>
</svg>
