<?xml version="1.0" encoding="utf-8"?>
<!-- Generator: Adobe Illustrator 23.0.5, SVG Export Plug-In . SVG Version: 6.00 Build 0)  -->
<svg version="1.1" id="Layer_1" xmlns="http://www.w3.org/2000/svg" xmlns:xlink="http://www.w3.org/1999/xlink" x="0px" y="0px"
	 viewBox="4 5.25 249.99 309.5" style="enable-background:new 0 0 258 320;" xml:space="preserve">
<style type="text/css">
	.st0{fill:#6C1CB0;}
	.st1{fill:#621796;}
	.st2{fill:#FFFFFF;}
	.st3{fill:#3E1066;}
</style>
<g>
	<path className="st0" d="M242.21,70.56v106.56H17.63V70.56c0-0.95,0.56-1.85,1.43-2.26l109.75-52.74c0.35-0.17,0.74-0.26,1.11-0.26
		c0.37,0,0.76,0.09,1.11,0.26L240.78,68.3C241.65,68.71,242.21,69.61,242.21,70.56z"/>
	<path className="st1" d="M242.64,174.26v29.94c0,16.6-8.26,32.24-22.12,41.82l-72.04,49.79c-5.73,3.96-12.48,6.05-19.5,6.05
		s-13.77-2.09-19.5-6.05l-72.02-49.79c-13.84-9.56-22.12-25.2-22.12-41.82v-29.94H242.64z"/>
	<g>
		<path className="st2" d="M109.37,89.15c0.75-0.97-0.03-2.36-1.24-2.23l-32.41,3.43c-0.76,0.08-1.32,0.77-1.23,1.53l3.68,33.69
			c0.14,1.24,1.71,1.69,2.48,0.7L109.37,89.15z"/>
		<path className="st2" d="M177.36,126.26c0.76,0.99,2.34,0.54,2.48-0.7l3.68-33.69c0.08-0.76-0.47-1.45-1.23-1.53l-32.41-3.43
			c-1.22-0.13-1.99,1.26-1.24,2.23L177.36,126.26z"/>
		<path className="st2" d="M90.48,139.88c-1.15,0-1.8-1.33-1.1-2.24l38.52-49.75c0.56-0.72,1.64-0.72,2.2,0l38.52,49.75
			c0.71,0.91,0.06,2.24-1.1,2.24H90.48z"/>
		<path className="st2" d="M101.19,228.97c0.63,1.46-1.29,2.66-2.33,1.45l-63.86-74.36c-0.77-0.9-0.13-2.29,1.05-2.29h31.95
			c0.56,0,1.06,0.33,1.28,0.84L101.19,228.97z"/>
		<path className="st2" d="M189.99,153.76c-0.56,0-1.06,0.33-1.28,0.84l-31.91,74.36c-0.63,1.46,1.29,2.66,2.33,1.45l63.86-74.36
			c0.77-0.9,0.13-2.29-1.05-2.29H189.99z"/>
		<path className="st2" d="M192.41,138.34c-0.09,0.82,0.55,1.54,1.38,1.54h25.72c1.14,0,1.8-1.3,1.11-2.22l-22.44-30.12
			c-0.75-1.01-2.36-0.58-2.49,0.68L192.41,138.34z"/>
		<path className="st2" d="M62.3,108.22c-0.14-1.25-1.74-1.69-2.49-0.68l-22.44,30.12c-0.68,0.92-0.03,2.22,1.11,2.22h25.72
			c0.83,0,1.47-0.72,1.38-1.54L62.3,108.22z"/>
		<path className="st2" d="M84.86,155.7c-0.39-0.92,0.28-1.93,1.28-1.93h85.73c1,0,1.67,1.02,1.28,1.93l-42.86,99.89
			c-0.48,1.12-2.07,1.12-2.55,0L84.86,155.7z"/>
	</g>
	<path className="st3" d="M238.44,55.18L141.04,8c-3.79-1.83-7.92-2.75-12.04-2.75c-4.1,0-8.22,0.92-12.02,2.75l-97.4,47.19
		C10.05,59.79,4,69.44,4,80.01v122.07c0,23.11,11.25,44.78,30.14,58.11L97.3,304.7c9.51,6.7,20.61,10.05,31.7,10.05
		c11.11,0,22.21-3.35,31.7-10.05l63.17-44.51c18.89-13.33,30.12-35,30.12-58.11V80.01C254,69.44,247.95,59.79,238.44,55.18z
		 M238.07,202.08c0,17.89-8.75,34.75-23.38,45.07l-63.15,44.53c-6.63,4.66-14.43,7.14-22.54,7.14s-15.89-2.48-22.51-7.14
		l-63.16-44.53c-14.64-10.32-23.38-27.18-23.38-45.07V80.01c0-4.43,2.58-8.55,6.57-10.5l97.4-47.17c3.16-1.52,7.03-1.52,10.17,0
		l97.4,47.17c4.01,1.95,6.59,6.07,6.59,10.5V202.08z"/>
</g>
</svg>
